<?xml version="1.0" encoding="UTF-8" standalone="no"?><!-- Generator: Gravit.io --><svg xmlns="http://www.w3.org/2000/svg" xmlns:xlink="http://www.w3.org/1999/xlink" style="isolation:isolate" viewBox="0 0 1080 1080" width="1080pt" height="1080pt"><defs><clipPath id="_clipPath_WvmwURu6lutMYjJYYN12Q2w3o7lywvfb"><rect width="1080" height="1080"/></clipPath></defs><g clip-path="url(#_clipPath_WvmwURu6lutMYjJYYN12Q2w3o7lywvfb)"><path d=" M 644.761 320.769 C 551.551 232.818 359.416 214.704 293.679 228.945 C 232.95 242.1 194.636 264.771 176.627 303.179 C 138.45 384.6 281.584 467.989 361.769 520.581 C 410.182 537.295 486.893 552.665 535.218 589.274 C 628.298 659.788 523.351 762.669 466.276 785.305 C 344.335 833.667 -31.728 825.609 57.12 744.915 C 160.569 650.961 285.385 576.17 361.769 520.581 C 391.412 499.009 684.416 462.533 731.579 506.834 C 810.123 580.611 793.859 633.628 841 700 C 873.898 746.319 944.867 785.733 976 800.666 C 987.189 806.033 865.669 780.083 805.214 692.673 C 756.702 622.529 753.814 588.994 718.584 548.752 Q 665.615 488.247 361.769 520.581 L 361.769 520.581 Q 137.725 734.043 160.393 753.71 C 183.062 773.377 399.142 768.058 465.725 737.387 C 499.699 721.737 564.909 682.423 545.324 633.987 C 527.132 588.994 391.191 534.489 361.769 520.581 C 358.325 518.953 212.096 367.419 237.879 317.132 C 250.703 292.119 270.841 271.646 352.769 262 C 437.156 252.065 605.951 290.536 643.597 322.391" fill="rgb(159,0,80)"/><defs><filter id="R5DTvKxr6GHJAtCsHe65zDiaIvImlFJW" x="-200%" y="-200%" width="400%" height="400%" filterUnits="objectBoundingBox" color-interpolation-filters="sRGB"><feOffset xmlns="http://www.w3.org/2000/svg" in="SourceGraphic" dx="0" dy="0"/><feGaussianBlur xmlns="http://www.w3.org/2000/svg" stdDeviation="2.146804531419514" result="pf_100_offsetBlur"/><feComposite xmlns="http://www.w3.org/2000/svg" in="SourceGraphic" in2="pf_100_offsetBlur" result="pf_100_inverse" operator="out"/><feFlood xmlns="http://www.w3.org/2000/svg" flood-color="#FFFFFF" flood-opacity="1" result="pf_100_color"/><feComposite xmlns="http://www.w3.org/2000/svg" in="pf_100_color" in2="pf_100_inverse" operator="in" result="pf_100_shadow"/><feComposite xmlns="http://www.w3.org/2000/svg" in="pf_100_shadow" in2="SourceGraphic" operator="over"/></filter></defs><g filter="url(#R5DTvKxr6GHJAtCsHe65zDiaIvImlFJW)"><path d=" M 756.913 377.041 L 756.913 377.041 L 361.769 520.581 Q 494.524 443.232 871 227.582 L 610 800.666 L 756.913 377.041 L 871 227.582 L 756.913 377.041 Z " fill="rgb(215,0,132)"/></g></g></svg>